<?xml version="1.0" encoding="UTF-8" standalone="no"?>
<svg
   width="80"
   height="80"
   viewBox="0 0 80 80"
   fill="none"
   version="1.1"
   id="svg7"
   sodipodi:docname="vehicle_tools.svg"
   inkscape:export-filename="vehicle_tools.png"
   inkscape:export-xdpi="76.800003"
   inkscape:export-ydpi="76.800003"
   inkscape:version="1.4.2 (f4327f4, 2025-05-13)"
   xmlns:inkscape="http://www.inkscape.org/namespaces/inkscape"
   xmlns:sodipodi="http://sodipodi.sourceforge.net/DTD/sodipodi-0.dtd"
   xmlns="http://www.w3.org/2000/svg"
   xmlns:svg="http://www.w3.org/2000/svg">
  <defs
     id="defs7" />
  <sodipodi:namedview
     id="namedview7"
     pagecolor="#505050"
     bordercolor="#eeeeee"
     borderopacity="1"
     inkscape:showpageshadow="0"
     inkscape:pageopacity="0"
     inkscape:pagecheckerboard="0"
     inkscape:deskcolor="#505050"
     inkscape:zoom="7.5572037"
     inkscape:cx="62.258478"
     inkscape:cy="38.704792"
     inkscape:window-width="1920"
     inkscape:window-height="1057"
     inkscape:window-x="-8"
     inkscape:window-y="-8"
     inkscape:window-maximized="1"
     inkscape:current-layer="svg7" />
  <g
     id="g1"
     transform="matrix(0.93164145,0,0,0.93164145,-10.777183,-8.0258056)">
    <path
       d="M 85.263936,43.378093 H 23.741602 L 29.60239,28.34673 c 1.853022,-4.752625 6.431734,-7.88169 11.532652,-7.88169 h 26.735454 c 5.100919,0 9.67963,3.129219 11.532653,7.88169 z"
       fill="#C2CCDE"
       fill-opacity="0.25"
       id="path1"
       style="fill:#e6e6e6;fill-opacity:1;stroke-width:1.54728" />
    <path
       d="m 18.915481,71.034178 v 8.505554 c 0,1.709126 1.385434,3.09456 3.09456,3.09456 h 9.283681 c 1.709125,0 3.09456,-1.385434 3.09456,-3.09456 V 71.229136 H 20.462761 c -0.534276,0 -1.05277,-0.06762 -1.54728,-0.194958 z"
       fill="#C2CCDE"
       fill-opacity="0.25"
       id="path2"
       style="fill:#e6e6e6;fill-opacity:1;stroke-width:1.54728" />
    <path
       d="m 74.617566,71.229136 v 8.310596 c 0,1.709126 1.385435,3.09456 3.09456,3.09456 h 9.283681 c 1.709126,0 3.09456,-1.385434 3.09456,-3.09456 v -8.505554 c -0.49451,0.127341 -1.013004,0.194958 -1.54728,0.194958 z"
       fill="#C2CCDE"
       fill-opacity="0.25"
       id="path3"
       style="fill:#e6e6e6;fill-opacity:1;stroke-width:1.54728" />
    <path
       d="m 14.27364,55.756334 c 0,-6.836348 5.541893,-12.378241 12.378241,-12.378241 h 55.702086 c 6.836348,0 12.378241,5.541893 12.378241,12.378241 v 9.283681 c 0,3.418097 -2.771024,6.189121 -6.189121,6.189121 H 20.462761 c -3.418097,0 -6.189121,-2.771024 -6.189121,-6.189121 z"
       fill="#C2CCDE"
       fill-opacity="0.25"
       id="path4"
       style="fill:#e6e6e6;fill-opacity:1;stroke-width:1.54728" />
    <path
       d="m 25.104601,57.87781 c 0,-2.563689 2.078152,-4.641841 4.641841,-4.641841 2.563688,0 4.64184,2.078152 4.64184,4.641841 0,2.563534 -2.078152,4.64184 -4.64184,4.64184 -2.563689,0 -4.641841,-2.078306 -4.641841,-4.64184 z"
       fill="#C2CCDE"
       fill-opacity="0.25"
       id="path5"
       style="fill:#cccccc;fill-opacity:1;stroke-width:1.54728" />
    <path
       d="m 83.901247,57.87781 c 0,-2.563689 -2.078152,-4.641841 -4.641841,-4.641841 -2.563688,0 -4.64184,2.078152 -4.64184,4.641841 0,2.563534 2.078152,4.64184 4.64184,4.64184 2.563689,0 4.641841,-2.078306 4.641841,-4.64184 z"
       fill="#C2CCDE"
       fill-opacity="0.25"
       id="path6"
       style="fill:#cccccc;fill-opacity:1;stroke-width:1.54728" />
    <path
       d="m 20.462761,71.229136 h 13.925521 v 8.310596 c 0,1.709126 -1.385435,3.09456 -3.09456,3.09456 h -9.283681 c -1.709126,0 -3.09456,-1.385434 -3.09456,-3.09456 v -8.505554 c 0.49451,0.127341 1.013004,0.194958 1.54728,0.194958 z m 0,0 h 68.080326 m -68.080326,0 c -3.418097,0 -6.189121,-2.771024 -6.189121,-6.189121 v -9.283681 c 0,-6.836348 5.541893,-12.378241 12.378241,-12.378241 h 55.702086 c 6.836348,0 12.378241,5.541893 12.378241,12.378241 v 9.283681 c 0,3.418097 -2.771024,6.189121 -6.189121,6.189121 m 0,0 c 0.534276,0 1.05277,-0.06762 1.54728,-0.194958 v 8.505554 c 0,1.709126 -1.385434,3.09456 -3.09456,3.09456 h -9.283681 c -1.709125,0 -3.09456,-1.385434 -3.09456,-3.09456 V 71.229136 Z M 85.263936,43.378093 H 23.741602 L 29.60239,28.34673 c 1.853022,-4.752625 6.431734,-7.88169 11.532652,-7.88169 h 26.735454 c 5.100919,0 9.67963,3.129219 11.532653,7.88169 z M 29.746442,62.51965 c -2.563689,0 -4.641841,-2.078306 -4.641841,-4.64184 0,-2.563689 2.078152,-4.641841 4.641841,-4.641841 2.563688,0 4.64184,2.078152 4.64184,4.641841 0,2.563534 -2.078152,4.64184 -4.64184,4.64184 z m 49.512964,0 c 2.563689,0 4.641841,-2.078306 4.641841,-4.64184 0,-2.563689 -2.078152,-4.641841 -4.641841,-4.641841 -2.563688,0 -4.64184,2.078152 -4.64184,4.641841 0,2.563534 2.078152,4.64184 4.64184,4.64184 z"
       stroke="#C2CCDE"
       stroke-linecap="round"
       stroke-linejoin="round"
       id="path7"
       style="stroke:#2e2e2e;stroke-width:5.30537;stroke-dasharray:none;stroke-dashoffset:0;stroke-opacity:1" />
  </g>
</svg>
