<?xml version="1.0" encoding="UTF-8" standalone="no"?>
<svg
   width="512"
   height="512"
   viewBox="0 0 512 512"
   fill="none"
   stroke="currentColor"
   stroke-width="2"
   stroke-linecap="round"
   stroke-linejoin="round"
   class="icon icon-tabler icons-tabler-outline icon-tabler-wheel"
   version="1.1"
   id="svg9"
   sodipodi:docname="wheel.svg"
   inkscape:export-filename="wheel.png"
   inkscape:export-xdpi="12"
   inkscape:export-ydpi="12"
   inkscape:version="1.4.2 (f4327f4, 2025-05-13)"
   xmlns:inkscape="http://www.inkscape.org/namespaces/inkscape"
   xmlns:sodipodi="http://sodipodi.sourceforge.net/DTD/sodipodi-0.dtd"
   xmlns="http://www.w3.org/2000/svg"
   xmlns:svg="http://www.w3.org/2000/svg">
  <defs
     id="defs9" />
  <sodipodi:namedview
     id="namedview9"
     pagecolor="#505050"
     bordercolor="#eeeeee"
     borderopacity="1"
     inkscape:showpageshadow="0"
     inkscape:pageopacity="0"
     inkscape:pagecheckerboard="0"
     inkscape:deskcolor="#505050"
     inkscape:zoom="1.1132813"
     inkscape:cx="302.25965"
     inkscape:cy="288.78596"
     inkscape:window-width="1920"
     inkscape:window-height="1057"
     inkscape:window-x="-8"
     inkscape:window-y="-8"
     inkscape:window-maximized="1"
     inkscape:current-layer="svg9" />
  <path
     id="path9"
     style="display:inline;fill:#ffffff;fill-opacity:1;stroke:#2e2e2e;stroke-width:42.4155;stroke-dasharray:none;stroke-opacity:1"
     d="m 297.09508,320.8574 87.32706,119.73672 M 127.57786,71.405922 214.90492,191.14264 m 0,129.71476 -87.32706,119.73672 M 297.09508,191.14264 384.42214,71.405922 M 333.05328,256 H 487.15985 M 24.840146,256 H 178.94671 M 256,256 m -77.05329,0 a 77.053288,74.835445 0 1 0 154.10657,0 77.053288,74.835445 0 1 0 -154.10657,0 M 256,256 m -231.159854,0 a 231.15985,224.50633 0 1 0 462.319704,0 231.15985,224.50633 0 1 0 -462.319704,0" />
</svg>
