<?xml version="1.0" encoding="UTF-8"?>
<svg id="Layer_2" data-name="Layer 2" xmlns="http://www.w3.org/2000/svg" xmlns:xlink="http://www.w3.org/1999/xlink" viewBox="0 0 570.41 760.17">
  <defs>
    <style>
      .cls-1 {
        fill: url(#linear-gradient-2);
      }

      .cls-2 {
        fill: #e87d0d;
      }

      .cls-3 {
        fill: url(#linear-gradient);
      }
    </style>
    <linearGradient id="linear-gradient" x1="457.31" y1="386.71" x2="110.07" y2="535.3" gradientUnits="userSpaceOnUse">
      <stop offset="0" stop-color="#e87d0d"/>
      <stop offset="1" stop-color="#f5840e"/>
    </linearGradient>
    <linearGradient id="linear-gradient-2" x1="246.24" y1="222.6" x2="323.8" y2="403.12" gradientUnits="userSpaceOnUse">
      <stop offset=".07" stop-color="#122a45"/>
      <stop offset=".09" stop-color="#163353"/>
      <stop offset=".16" stop-color="#1f4872"/>
      <stop offset=".24" stop-color="#27598b"/>
      <stop offset=".32" stop-color="#2c649d"/>
      <stop offset=".4" stop-color="#2f6ba7"/>
      <stop offset=".5" stop-color="#316eab"/>
      <stop offset=".63" stop-color="#306ca8"/>
      <stop offset=".7" stop-color="#2d66a0"/>
      <stop offset=".76" stop-color="#295d92"/>
      <stop offset=".82" stop-color="#23507e"/>
      <stop offset=".86" stop-color="#1b3f64"/>
      <stop offset=".91" stop-color="#122a45"/>
    </linearGradient>
  </defs>
  <g id="Sollumz_banner">
    <path class="cls-2" d="m368.88,192.31L68.22,325l-1-132.11L494.22,0h0c0,83.27-49.15,158.69-125.34,192.31Z"/>
    <path class="cls-3" d="m199.55,429.69l300.66-132.69,1,132.11-427,192.89h0c0-83.27,49.15-158.69,125.34-192.31Z"/>
    <polygon class="cls-1" points="308.11 381.78 68.22 325 266.94 237.3 500.22 297 308.11 381.78"/>
    <g>
      <path class="cls-2" d="m48.3,760.17c-9.02,0-17.71-1.74-26.08-5.23-8.37-3.49-15.78-8.51-22.22-15.05l10.3-11.91c6.12,6.01,12.37,10.46,18.76,13.36,6.38,2.9,13.12,4.35,20.21,4.35,5.37,0,10.09-.8,14.17-2.42,4.08-1.61,7.27-3.84,9.58-6.68,2.31-2.84,3.46-6.09,3.46-9.74,0-5.04-1.77-8.94-5.31-11.67s-9.39-4.75-17.55-6.04l-18.68-3.22c-10.41-1.71-18.17-4.99-23.26-9.82-5.1-4.83-7.65-11.27-7.65-19.32,0-6.44,1.72-12.13,5.15-17.07,3.43-4.94,8.29-8.75,14.57-11.43,6.28-2.68,13.55-4.02,21.82-4.02s16.18,1.34,24.07,4.02c7.89,2.68,15,6.44,21.33,11.27l-9.34,13.04c-12.13-9.23-24.42-13.85-36.87-13.85-4.94,0-9.26.7-12.96,2.09-3.7,1.4-6.55,3.36-8.53,5.88-1.99,2.52-2.98,5.5-2.98,8.94,0,4.4,1.55,7.84,4.67,10.3,3.11,2.47,8.21,4.29,15.29,5.47l18.35,2.9c11.91,1.93,20.66,5.42,26.24,10.46,5.58,5.05,8.37,11.97,8.37,20.77,0,6.87-1.85,12.94-5.55,18.19-3.7,5.26-8.96,9.31-15.78,12.16-6.82,2.84-14.68,4.27-23.59,4.27Z"/>
      <path class="cls-2" d="m147.47,760.17c-7.94,0-15.16-1.85-21.65-5.55-6.5-3.7-11.65-8.8-15.46-15.29-3.81-6.49-5.72-13.71-5.72-21.65s1.88-15.27,5.63-21.66c3.76-6.38,8.91-11.48,15.46-15.29,6.55-3.81,13.79-5.71,21.74-5.71s15.16,1.91,21.65,5.71c6.49,3.81,11.62,8.91,15.38,15.29,3.76,6.39,5.63,13.6,5.63,21.66s-1.88,15.16-5.63,21.65c-3.76,6.5-8.88,11.59-15.38,15.29-6.5,3.7-13.71,5.55-21.65,5.55Zm0-14.17c5.04,0,9.6-1.26,13.69-3.78,4.08-2.52,7.3-5.93,9.66-10.22,2.36-4.29,3.54-9.12,3.54-14.49s-1.18-10.01-3.54-14.25c-2.36-4.24-5.58-7.65-9.66-10.22-4.08-2.58-8.64-3.86-13.69-3.86s-9.47,1.29-13.6,3.86c-4.13,2.58-7.38,5.99-9.74,10.22-2.36,4.24-3.54,8.99-3.54,14.25s1.18,10.2,3.54,14.49c2.36,4.29,5.61,7.7,9.74,10.22,4.13,2.52,8.67,3.78,13.6,3.78Z"/>
      <path class="cls-2" d="m205.43,758.56v-112.7l16.1-3.06v115.76h-16.1Z"/>
      <path class="cls-2" d="m240.53,758.56v-112.7l16.1-3.06v115.76h-16.1Z"/>
      <path class="cls-2" d="m307.34,760.17c-6.33,0-11.91-1.34-16.74-4.03s-8.61-6.46-11.35-11.35c-2.74-4.88-4.11-10.44-4.11-16.66v-51.52h16.1v48.78c0,6.33,1.85,11.38,5.55,15.13,3.7,3.76,8.67,5.63,14.89,5.63,4.29,0,8.18-.94,11.67-2.82,3.49-1.88,6.3-4.53,8.45-7.97v-58.77h16.1v81.95h-16.1v-8.37c-6.33,6.66-14.49,9.98-24.47,9.98Z"/>
      <path class="cls-2" d="m366.91,758.56v-81.95h16.1v7.73c6.12-6.22,13.79-9.34,23.02-9.34,5.58,0,10.57,1.23,14.97,3.7,4.4,2.47,7.83,5.85,10.3,10.14,3.33-4.61,7.33-8.08,11.99-10.38,4.67-2.31,9.9-3.46,15.7-3.46,6.12,0,11.46,1.34,16.02,4.02,4.56,2.68,8.13,6.42,10.71,11.19,2.58,4.78,3.86,10.38,3.86,16.83v51.52h-15.94v-48.78c0-6.44-1.69-11.51-5.07-15.21-3.38-3.7-7.92-5.55-13.6-5.55-4.08,0-7.73.94-10.95,2.82-3.22,1.88-6.01,4.64-8.37,8.29.21,1.07.38,2.2.48,3.38.11,1.18.16,2.36.16,3.54v51.52h-15.94v-48.78c0-6.44-1.72-11.51-5.15-15.21-3.44-3.7-7.94-5.55-13.52-5.55-3.97,0-7.51.83-10.63,2.5-3.12,1.67-5.8,4.16-8.05,7.49v59.57h-16.1Z"/>
      <path class="cls-2" d="m503.43,758.56v-11.91l45.88-56.19h-45.56v-13.85h65.85v11.75l-46.05,56.35h46.85v13.85h-66.98Z"/>
    </g>
  </g>
</svg>